Format : AVI
Format/Info : Audio Video Interleave
File size : 1.31 GiB
Duration : 1h 21mn
Overall bit rate : 2 294 Kbps
Writing library : VirtualDub build 32842/release

Video
ID : 0
Format : MPEG-4 Visual
Format profile : Advanced Simple@L5
Format settings, BVOP : 2
Format settings, QPel : No
Format settings, GMC : No warppoints
Format settings, Matrix : Default (H.263)
Muxing mode : Packed bitstream
Codec ID : XVID
Codec ID/Hint : XviD
Duration : 1h 21mn
Bit rate : 2 157 Kbps
Width : 642 pixels
Height : 342 pixels
Display aspect ratio : 1.877
Frame rate : 25.000 fps
Color space : YUV
Chroma subsampling : 4:2:0
Bit depth : 8 bits
Scan type : Progressive
Compression mode : Lossy
Bits/(Pixel*Frame) : 0.393
Stream size : 1.23 GiB (94%)
Writing library : XviD 64

Audio
ID : 1
Format : MPEG Audio
Format version : Version 1
Format profile : Layer 3
Mode : Joint stereo
Mode extension : MS Stereo
Codec ID : 55
Codec ID/Hint : MP3
Duration : 1h 21mn
Bit rate mode : Constant
Bit rate : 128 Kbps
Channel(s) : 2 channels
Sampling rate : 44.1 KHz
Compression mode : Lossy
Stream size : 74.9 MiB (6%)
Alignment : Split accross interleaves
Interleave, duration : 40 ms (1.00 video frame)
Interleave, preload duration : 500 ms
Writing library : LAME3.98r
Encoding settings : -m j -V 4 -q 2 -lowpass 17 -b 128






 
http://www.imdb.com/title/tt1517489/









Users: (603 votes) 10 reviews | Critics: 6 reviews Metascore: 38/100 (based on 6 reviews from Metacritic.com)


A retired spy is called back into action, and to bond with her new step-children, she invites them along for the adventure to stop the evil Timekeeper from taking over the world.

Director: Robert Rodriguez
Writer: Robert Rodriguez (screenplay)
Stars: Jessica Alba, Jeremy Piven and Joel McHale


 
http://www.leetleech.org/images/24852401118302917358.png
 
http://www.leetleech.org/images/56490882964925992053.png